<?xml version="1.0" encoding="utf-8"?>
<!-- Generator: Adobe Illustrator 24.2.1, SVG Export Plug-In . SVG Version: 6.00 Build 0)  -->
<svg version="1.1" id="Layer_1" xmlns="http://www.w3.org/2000/svg" xmlns:xlink="http://www.w3.org/1999/xlink" x="0px" y="0px"
	 viewBox="0 0 500 500" style="enable-background:new 0 0 500 500;" xml:space="preserve">
<style type="text/css">
	.st0{fill:#1F1F1F;}
	.st1{fill:#FA741C;}
	.st2{fill:#FFFFFF;}
</style>
<circle id="Circle" class="st0" cx="250.5" cy="250.5" r="240.5"/>
<g id="Logo">
	<circle class="st1" cx="166.4" cy="165.5" r="42.2"/>
	<path class="st2" d="M222.4,249.8c0,31-25.1,42-56.2,42c-23.2,0-42.2,18.8-42.2,42.2c0,23.4,18.8,42.2,42.2,42.2
		s42.2-18.8,42.2-42.2c0-31,11.2-56.2,42-56.2s42,25.1,42,56.2c0,23.2,18.8,42.2,42.2,42.2s42.2-18.8,42.2-42.2
		c0-23.4-18.8-42.2-42.2-42.2c-31,0-56.2-11-56.2-42s25.1-42,56.2-42c23.2,0,42.2-18.8,42.2-42.2s-18.8-42.2-42.2-42.2
		s-42.2,18.8-42.2,42.2c0,31-11,56.2-42,56.2l0,0C235,221.7,222.6,234.1,222.4,249.8"/>
	<circle class="st1" cx="215.6" cy="210.9" r="17.5"/>
</g>
</svg>
